<?xml version="1.0" standalone="no"?>
<!DOCTYPE svg PUBLIC "-//W3C//DTD SVG 20010904//EN"
 "http://www.w3.org/TR/2001/REC-SVG-20010904/DTD/svg10.dtd">
<svg version="1.0" xmlns="http://www.w3.org/2000/svg"
 width="512.000000pt" height="512.000000pt" viewBox="0 0 512.000000 512.000000"
 preserveAspectRatio="xMidYMid meet">
<metadata>
Created by potrace 1.11, written by Peter Selinger 2001-2013
</metadata>
<g transform="translate(0.000000,512.000000) scale(0.100000,-0.100000)"
fill="#000000" stroke="none">
<path d="M2527 5104 c-1 -1 -72 -4 -157 -8 -85 -3 -164 -8 -175 -10 -11 -2
-47 -7 -80 -10 -298 -35 -515 -110 -622 -215 -52 -51 -73 -84 -100 -156 -31
-85 -36 -151 -37 -465 l-1 -275 597 -1 c329 0 601 -4 605 -8 12 -11 10 -138
-2 -142 -5 -2 -410 -5 -900 -7 -881 -2 -891 -3 -965 -24 -125 -36 -241 -102
-321 -182 -150 -150 -215 -304 -273 -651 -8 -47 -18 -101 -21 -120 -10 -60
-14 -361 -5 -440 34 -312 105 -575 199 -735 48 -81 162 -193 237 -232 111 -59
153 -65 431 -68 139 -1 256 1 260 4 5 3 9 148 9 321 0 334 4 367 52 490 57
147 184 297 320 378 39 23 74 42 77 42 4 0 21 7 38 15 105 48 109 49 842 51
497 1 708 5 750 14 115 23 261 108 335 193 70 82 130 212 146 317 3 25 6 331
6 680 0 561 -2 642 -17 699 -45 176 -172 326 -347 413 -95 47 -146 64 -254 82
-137 23 -233 34 -379 42 -111 6 -245 10 -248 8z m-575 -384 c54 -15 132 -92
147 -147 23 -82 7 -161 -45 -222 -136 -159 -394 -62 -396 148 -1 155 141 261
294 221z"/>
<path d="M3924 3518 c0 -321 -4 -362 -35 -464 -40 -129 -101 -228 -201 -327
-98 -96 -254 -184 -358 -202 -19 -3 -44 -9 -55 -12 -11 -4 -330 -7 -710 -9
-379 -1 -697 -4 -705 -6 -8 -3 -31 -8 -50 -12 -211 -49 -405 -262 -443 -487
-18 -108 -16 -1301 2 -1379 49 -204 240 -377 521 -473 72 -25 219 -64 270 -73
14 -3 51 -9 83 -15 105 -18 160 -22 312 -23 133 0 278 9 294 18 3 2 29 7 56
10 70 10 206 42 300 72 334 107 519 277 560 514 4 19 7 150 7 290 l1 255 -604
5 -604 5 0 72 c-1 44 3 73 10 74 5 0 435 2 955 3 854 3 951 5 1005 20 162 46
277 167 371 389 58 137 123 346 139 447 4 25 9 54 11 65 18 92 23 328 10 450
-4 39 -9 86 -11 105 -4 35 -19 117 -36 200 -5 25 -11 54 -13 65 -28 143 -77
289 -134 400 -84 162 -213 267 -371 301 -47 10 -141 14 -321 14 l-256 0 0
-292z m-586 -2647 c79 -40 121 -102 129 -190 14 -156 -125 -277 -278 -241 -41
10 -64 24 -100 60 -50 50 -70 98 -71 169 -1 80 69 180 145 208 51 18 133 16
175 -6z"/>
</g>
</svg>
